<?xml version="1.0" encoding="UTF-8"?><svg id="Layer_2" xmlns="http://www.w3.org/2000/svg" width="1280" height="720" viewBox="0 0 1280 720"><polygon points="1161.0984 54.0847 1171.5 134.5 1219.5 121.5 1226.5 105.5 1252.5 107.5 1243.5 80.5 1206.7992 58.2911 1181 68.8069 1171.5 43.5 1161.0984 54.0847" fill="none" stroke="#66bcf6" stroke-linecap="round" stroke-linejoin="round" stroke-width=".25"/><polyline points="349 190.3672 494.7866 222.7882 613.2915 231.9326 713.5981 231.9326 734.3541 238.583 771.0139 244.4021 804.2634 235.2578 892.929 280.1483 904.8647 312.5693 898.0443 342.4963 904.8647 351 952.6077 316.7258 945.7873 305.0875 980.742 294.2805 997.793 261.0283 1038.7156 247.7274 1050.6513 233.5952 1050.6513 200 1075.0436 190 1084.7535 215.3064 1103.5096 229.4386" fill="none" stroke="#42dd9d" stroke-linejoin="round" stroke-width=".25"/><polyline points="359.5 533.5 399.5104 531.4595 459.9814 575.0676 507.4943 583.473 507.4943 573.9446 542.0492 576.6622 565.3737 599.6486 570.557 620.0811 594.7454 634.5541 609.4312 616.6757 627.5725 620.0811 659.5358 662.6486 667.3106 687.3378 688.5744 695 697.5 693.5" fill="none" stroke="#42dd9d" stroke-linejoin="round" stroke-width=".25"/><polyline points="873 -10 872.5 11.5 898 20.8508 906.5 64.5 883.5 88.5 912.5 133.5 904.5 162.5 864.5 134.5 853.5 92.5 816.5 92.5 750.5 64.5 730.5 72.8519 722.5 40.5 702.5 35.5 702 -10" fill="none" stroke="#66bcf6" stroke-linecap="round" stroke-linejoin="round" stroke-width=".25"/><polyline points="687 730 703.1489 693.1958 691.2519 668.879 715.9953 639.0163 758.6562 614.273 785.1061 616.8326 793.6383 614.273 807.2898 626.218 841.4186 621.9519 831.1799 596.3554 890.9053 587.8232 907.1165 602.3279 925.0341 587.8232 951.4839 606.594 951.4839 636.3154 990.732 674.8516 1003.5303 673.1451 1003.5303 634.4706 963.429 566.4927 974.5208 527.2446 995.8513 513.593 998.411 494.8222 1011.2093 492.2625 1038.5123 449.6016 1007.5512 391.7265 1029.1269 411.2067 1042.7784 349.7749 1042.7784 327.4444 1092.2652 303.701 1066.6686 285.7834 1067.5218 262.7464 1104.2102 230.3241 1127.2472 202.1679 1119.5682 232.0305 1127.2472 246.127 1145.1648 214.9661 1176.7339 182.5438 1181 163.773 1161.3759 150.1214 1157.9631 180.8374 1131.5133 185.9567 1104.2102 161.2133 1104.2102 139.8828 1082.8797 135.6167 1046.1913 179.9841 1048.7509 152.6811 1064.9621 140.736 1064.1089 123.6716 1137.4858 89.5429 1164.5 30.5 1107 -9" fill="none" stroke="#66bcf6" stroke-linecap="round" stroke-linejoin="round" stroke-width=".25"/><path d="M299.5-17l2.2268,76.6431-6.2925,19.2345,11.8688,28.5829v25.2075l23.0369,25.9857c6.257,10.523,12.5139,21.0461,18.7708,31.5691h0c-8.9461,5.7207-15.8922,3.4414-24.8383,9.1621l-2,53.1991-26.8383,53.501v27.673l-15.4343,23.6958,18.7708,88.7348,15.7846,27.7789-4.6927,14.0289,39.2481,18.2562,9.3854,16.7258,17.9176,76.7898,23.0369,28.1562-1.9725,12.7983-16.1803-4,16.1528,21.3432,15.1323,5,14.1708,13.4921-.2538,32.942,15,5h14l-2-10-16.5076-40.7403-23.8902-43.5142-19.6241-29.8627,1.7064-33.2756,28.1562,17.0644,2.5597,27.303,30.7159,51.1932,26.4498,24.7434-4.9906,15.7846,35.9243,36.8042" fill="none" stroke="#66bcf6" stroke-linecap="round" stroke-linejoin="round" stroke-width=".25"/><g><path d="M531.5684,127.2998c-.4849,2.1113-1.4082,3.7334-2.771,4.8672-1.4028,1.123-3.0635,1.6846-4.981,1.6846-1.7349-.042-3.1821-.4785-4.3418-1.3125-1.1802-.8018-2.0376-1.7285-2.5718-2.7812-.1616-.3438-.3076-.6719-.4385-.9844-.1211-.3223-.2227-.7285-.3027-1.2188-.1514-.916-.2271-2.6768-.2271-5.2812,0-2.6455,.0757-4.416,.2271-5.3125,.1611-.8955,.4082-1.6191,.7412-2.1719,.5352-1.0518,1.3926-1.9893,2.5732-2.8125,1.1602-.833,2.6084-1.2598,4.3438-1.2812,2.1289,.0215,3.8643,.6709,5.2061,1.9502,1.3418,1.29,2.1895,2.8857,2.5425,4.79h-3.5469c-.2729-.9189-.7681-1.7021-1.4858-2.3496-.7476-.6152-1.6572-.9336-2.728-.9551-.7886,.0215-1.4653,.1836-2.0312,.4863-.5762,.3125-1.041,.7041-1.3945,1.1738-.4346,.4902-.7222,1.1221-.8638,1.8945-.1621,.8145-.2427,2.3438-.2427,4.5879s.0806,3.7637,.2427,4.5566c.1416,.793,.4297,1.4355,.8643,1.9258,.3535,.4697,.8188,.8506,1.3955,1.1426,.5654,.3447,1.2432,.5176,2.0317,.5176,1.8804,0,3.2856-1.0391,4.2158-3.1162h3.543Z" fill="none" stroke="#f2e235" stroke-linejoin="round" stroke-width=".25"/><path d="M547.3896,128.5684h-8.3691l-1.6943,5.0957h-3.5415l8.021-22.7812h2.7993l8.02,22.7812h-3.5254l-1.71-5.0957Zm-.9536-3.0586l-3.1929-9.9668h-.0605l-3.1934,9.9668h6.4468Z" fill="none" stroke="#f2e235" stroke-linejoin="round" stroke-width=".25"/><path d="M557.1973,110.8828h3.1484l9.9941,16.1953h.0605v-16.1953h3.3398v22.7812h-3.1641l-9.9785-16.1953h-.0605v16.1953h-3.3398v-22.7812Z" fill="none" stroke="#f2e235" stroke-linejoin="round" stroke-width=".25"/><path d="M591.9961,128.5684h-8.3691l-1.6943,5.0957h-3.541l8.0205-22.7812h2.7998l8.0195,22.7812h-3.5254l-1.71-5.0957Zm-.9541-3.0586l-3.1924-9.9668h-.0605l-3.1934,9.9668h6.4463Z" fill="none" stroke="#f2e235" stroke-linejoin="round" stroke-width=".25"/><path d="M601.8037,110.8828h7.7207c2.9873,.0215,5.2275,1.3027,6.7217,3.8438,.5342,.8545,.8721,1.75,1.0127,2.6875,.1113,.9375,.166,2.5576,.166,4.8594,0,2.4482-.0859,4.1562-.2568,5.125-.0811,.4902-.2021,.9277-.3633,1.3125-.1719,.375-.3779,.7656-.6201,1.1719-.6465,1.0732-1.5449,1.959-2.6953,2.6562-1.1406,.75-2.5381,1.125-4.1934,1.125h-7.4922v-22.7812Zm3.3398,19.5332h4.001c1.8789,0,3.2432-.6631,4.0908-1.9893,.374-.4902,.6113-1.1113,.7129-1.8633,.0908-.7412,.1367-2.1289,.1367-4.165,0-1.9824-.0459-3.4023-.1367-4.2588-.1211-.8564-.4092-1.5498-.8633-2.082-.9297-1.3262-2.2432-1.9678-3.9404-1.9268h-4.001v16.2852Z" fill="none" stroke="#f2e235" stroke-linejoin="round" stroke-width=".25"/><path d="M634.8682,128.5684h-8.3691l-1.6943,5.0957h-3.541l8.0205-22.7812h2.7998l8.0195,22.7812h-3.5254l-1.71-5.0957Zm-.9541-3.0586l-3.1924-9.9668h-.0605l-3.1934,9.9668h6.4463Z" fill="none" stroke="#f2e235" stroke-linejoin="round" stroke-width=".25"/></g><g><path d="M554.0659,402.8828h3.3408v14.7002c.02,1.5537,.4546,2.7373,1.3032,3.5498,.8291,.8555,1.8945,1.2832,3.1982,1.2832s2.3794-.4277,3.2285-1.2832c.8281-.8125,1.2529-1.9961,1.2729-3.5498v-14.7002h3.3408v15.0625c-.0405,2.3965-.7925,4.2969-2.2559,5.7031-1.4736,1.4482-3.3354,2.1816-5.5864,2.2031-2.2104-.0215-4.0576-.7539-5.541-2.2012-1.5142-1.4043-2.2812-3.3027-2.3013-5.6963v-15.0713Z" fill="none" stroke="#f2e235" stroke-linejoin="round" stroke-width=".25"/><path d="M576.2285,402.8828h3.1494l9.9932,16.1953h.0605v-16.1953h3.3408v22.7812h-3.1646l-9.978-16.1953h-.0605v16.1953h-3.3408v-22.7812Z" fill="none" stroke="#f2e235" stroke-linejoin="round" stroke-width=".25"/><path d="M599.7192,402.8828h3.3408v22.7812h-3.3408v-22.7812Z" fill="none" stroke="#f2e235" stroke-linejoin="round" stroke-width=".25"/><path d="M613.3188,405.9434h-6.0479v-3.0605h15.4404v3.0605h-6.0518v19.7207h-3.3408v-19.7207Z" fill="none" stroke="#f2e235" stroke-linejoin="round" stroke-width=".25"/><path d="M627.1689,402.8828h14.0967v3.248h-10.7559v6.5195h9.1812v3.0586h-9.1812v6.707h10.7559v3.248h-14.0967v-22.7812Z" fill="none" stroke="#f2e235" stroke-linejoin="round" stroke-width=".25"/><path d="M646.5664,402.8828h7.7207c2.9873,.0215,5.2275,1.3027,6.7217,3.8438,.5342,.8545,.8721,1.75,1.0127,2.6875,.1113,.9375,.166,2.5576,.166,4.8594,0,2.4482-.0859,4.1562-.2568,5.125-.0811,.4902-.2021,.9277-.3633,1.3125-.1719,.375-.3779,.7656-.6201,1.1719-.6465,1.0732-1.5449,1.959-2.6953,2.6562-1.1406,.75-2.5381,1.125-4.1934,1.125h-7.4922v-22.7812Zm3.3398,19.5332h4.001c1.8789,0,3.2432-.6631,4.0908-1.9893,.374-.4902,.6113-1.1113,.7129-1.8633,.0908-.7412,.1367-2.1289,.1367-4.165,0-1.9824-.0459-3.4023-.1367-4.2588-.1211-.8564-.4092-1.5498-.8633-2.082-.9297-1.3262-2.2432-1.9678-3.9404-1.9268h-4.001v16.2852Z" fill="none" stroke="#f2e235" stroke-linejoin="round" stroke-width=".25"/><path d="M677.8672,420.1445c1.7568,1.4932,3.8477,2.25,6.2715,2.2715,2.8672-.042,4.3213-1.1006,4.3613-3.1748,.0215-1.6992-.9375-2.7217-2.876-3.0654-.8877-.125-1.8623-.2656-2.9209-.4219-1.8984-.3232-3.3408-1.0479-4.3301-2.1738-1.0195-1.1572-1.5293-2.5645-1.5293-4.2227,0-1.9912,.6406-3.5967,1.9209-4.8164,1.2393-1.21,2.999-1.8242,5.2773-1.8457,2.7412,.0625,5.126,.8467,7.1523,2.3535l-1.8623,2.8359c-1.6562-1.127-3.4785-1.7109-5.4668-1.7539-1.0303,0-1.8887,.2666-2.5742,.7979-.7168,.5527-1.0859,1.376-1.1055,2.4717,0,.6562,.2461,1.25,.7412,1.7822,.4951,.542,1.2871,.917,2.377,1.126,.6055,.1045,1.4326,.2246,2.4824,.3594,2.0693,.292,3.5977,1.0586,4.5869,2.2988,.9785,1.2207,1.4688,2.6387,1.4688,4.2539-.1113,4.3584-2.6924,6.5684-7.7432,6.6309-3.2666,0-6.0752-1.0361-8.4238-3.1094l2.1924-2.5977Z" fill="none" stroke="#f2e235" stroke-linejoin="round" stroke-width=".25"/><path d="M701.3027,405.9434h-6.0469v-3.0605h15.4395v3.0605h-6.0508v19.7207h-3.3418v-19.7207Z" fill="none" stroke="#f2e235" stroke-linejoin="round" stroke-width=".25"/><path d="M726.4609,420.5684h-8.3691l-1.6934,5.0957h-3.542l8.0205-22.7812h2.8008l8.0195,22.7812h-3.5254l-1.7109-5.0957Zm-.9531-3.0586l-3.1934-9.9668h-.0605l-3.1934,9.9668h6.4473Z" fill="none" stroke="#f2e235" stroke-linejoin="round" stroke-width=".25"/><path d="M740.0195,405.9434h-6.0488v-3.0605h15.4414v3.0605h-6.0527v19.7207h-3.3398v-19.7207Z" fill="none" stroke="#f2e235" stroke-linejoin="round" stroke-width=".25"/><path d="M753.8691,402.8828h14.0957v3.248h-10.7559v6.5195h9.1816v3.0586h-9.1816v6.707h10.7559v3.248h-14.0957v-22.7812Z" fill="none" stroke="#f2e235" stroke-linejoin="round" stroke-width=".25"/><path d="M773.5391,420.1445c1.7568,1.4932,3.8477,2.25,6.2705,2.2715,2.8682-.042,4.3223-1.1006,4.3633-3.1748,.0205-1.6992-.9385-2.7217-2.877-3.0654-.8877-.125-1.8613-.2656-2.9219-.4219-1.8965-.3232-3.3398-1.0479-4.3291-2.1738-1.0195-1.1572-1.5283-2.5645-1.5283-4.2227,0-1.9912,.6396-3.5967,1.9199-4.8164,1.2402-1.21,2.999-1.8242,5.2773-1.8457,2.7422,.0625,5.126,.8467,7.1523,2.3535l-1.8633,2.8359c-1.6553-1.127-3.4775-1.7109-5.4668-1.7539-1.0293,0-1.8867,.2666-2.5742,.7979-.7168,.5527-1.085,1.376-1.1055,2.4717,0,.6562,.248,1.25,.7422,1.7822,.4941,.542,1.2871,.917,2.377,1.126,.6055,.1045,1.4326,.2246,2.4824,.3594,2.0684,.292,3.5977,1.0586,4.5869,2.2988,.9785,1.2207,1.4678,2.6387,1.4678,4.2539-.1104,4.3584-2.6914,6.5684-7.7422,6.6309-3.2666,0-6.0742-1.0361-8.4238-3.1094l2.1924-2.5977Z" fill="none" stroke="#f2e235" stroke-linejoin="round" stroke-width=".25"/><path d="M584.2266,450.2734c0-2.6514,.0757-4.4258,.2271-5.3232,.1611-.8975,.4082-1.624,.7412-2.1768,.5342-1.0479,1.3916-1.9824,2.5713-2.8018,1.1602-.8301,2.6074-1.2549,4.3418-1.2764,1.7549,.0215,3.2168,.4482,4.3867,1.2812,1.1602,.8232,1.9971,1.7607,2.5117,2.8125,.3726,.5527,.6299,1.2764,.7705,2.1719,.1309,.8965,.1968,2.667,.1968,5.3125,0,2.6045-.0659,4.3652-.1968,5.2812-.1411,.917-.3984,1.6514-.7715,2.2031-.5142,1.0527-1.3516,1.9795-2.5107,2.7812-1.1699,.834-2.6323,1.2705-4.3867,1.3125-1.7349-.042-3.1816-.4785-4.3418-1.3125-1.1797-.8018-2.0371-1.7285-2.5713-2.7812-.1616-.3438-.3076-.6719-.4385-.9844-.1211-.3223-.2227-.7285-.3027-1.2188-.1514-.916-.2271-2.6768-.2271-5.2812Zm3.3408,0c0,2.2441,.0806,3.7637,.2427,4.5566,.1416,.793,.4297,1.4355,.8643,1.9258,.3535,.4697,.8184,.8506,1.3945,1.1426,.5654,.3447,1.2432,.5176,2.0312,.5176,.7983,0,1.4902-.1729,2.0771-.5176,.5557-.292,1-.6729,1.334-1.1426,.4346-.4902,.7324-1.1328,.8945-1.9258,.1514-.793,.2271-2.3125,.2271-4.5566s-.0757-3.7734-.2271-4.5879c-.1621-.7725-.46-1.4043-.8945-1.8945-.334-.4697-.7783-.8613-1.334-1.1738-.5869-.3027-1.2788-.4648-2.0771-.4863-.7881,.0215-1.4658,.1836-2.0312,.4863-.5762,.3125-1.041,.7041-1.3945,1.1738-.4346,.4902-.7227,1.1221-.8643,1.8945-.1621,.8145-.2427,2.3438-.2427,4.5879Z" fill="none" stroke="#f2e235" stroke-linejoin="round" stroke-width=".25"/><path d="M606.0923,438.8828h14.0962v3.248h-10.7554v6.7383h9.1812v3.0586h-9.1812v9.7363h-3.3408v-22.7812Z" fill="none" stroke="#f2e235" stroke-linejoin="round" stroke-width=".25"/><path d="M645.459,456.5684h-8.3687l-1.6943,5.0957h-3.5415l8.021-22.7812h2.7993l8.0205,22.7812h-3.5254l-1.7109-5.0957Zm-.9531-3.0586l-3.1934-9.9668h-.0605l-3.1929,9.9668h6.4468Z" fill="none" stroke="#f2e235" stroke-linejoin="round" stroke-width=".25"/><path d="M655.2676,438.8828h3.1484l6.3262,14.8496,6.2061-14.8496h3.1592v22.7812h-3.3398v-14.207h-.0762l-4.6182,10.9404h-2.7861l-4.6191-10.9404h-.0605v14.207h-3.3398v-22.7812Z" fill="none" stroke="#f2e235" stroke-linejoin="round" stroke-width=".25"/><path d="M681.1172,438.8828h14.0957v3.248h-10.7549v6.5195h9.1807v3.0586h-9.1807v6.707h10.7549v3.248h-14.0957v-22.7812Z" fill="none" stroke="#f2e235" stroke-linejoin="round" stroke-width=".25"/><path d="M700.5137,438.8828h8.6221c1.8389,0,3.3389,.5,4.5,1.5,1.3984,1.1357,2.127,2.7559,2.1875,4.8594-.04,3.0938-1.46,5.1982-4.2607,6.3125l5.1074,10.1094h-3.9688l-4.5674-9.7363h-4.2783v9.7363h-3.3418v-22.7812Zm3.3418,9.9863h5.0674c1.2539-.0215,2.1943-.3975,2.8223-1.1289,.6162-.6787,.9248-1.5137,.9248-2.5059-.0195-1.1914-.3887-2.0527-1.1074-2.5859-.5664-.4697-1.3857-.7051-2.458-.7051h-5.249v6.9258Z" fill="none" stroke="#f2e235" stroke-linejoin="round" stroke-width=".25"/><path d="M721.6299,438.8828h3.3398v22.7812h-3.3398v-22.7812Z" fill="none" stroke="#f2e235" stroke-linejoin="round" stroke-width=".25"/><path d="M746.3633,455.2998c-.4844,2.1113-1.4082,3.7334-2.7705,4.8672-1.4033,1.123-3.0635,1.6846-4.9814,1.6846-1.7344-.042-3.1816-.4785-4.3418-1.3125-1.1797-.8018-2.0371-1.7285-2.5713-2.7812-.1611-.3438-.3076-.6719-.4385-.9844-.1211-.3223-.2227-.7285-.3027-1.2188-.1514-.916-.2266-2.6768-.2266-5.2812,0-2.6455,.0752-4.416,.2266-5.3125,.1611-.8955,.4082-1.6191,.7412-2.1719,.5352-1.0518,1.3926-1.9893,2.5732-2.8125,1.1602-.833,2.6084-1.2598,4.3438-1.2812,2.1289,.0215,3.8643,.6709,5.2061,1.9502,1.3418,1.29,2.1895,2.8857,2.542,4.79h-3.5469c-.2725-.9189-.7676-1.7021-1.4854-2.3496-.7471-.6152-1.6572-.9336-2.7275-.9551-.7891,.0215-1.4658,.1836-2.0312,.4863-.5762,.3125-1.041,.7041-1.3945,1.1738-.4355,.4902-.7227,1.1221-.8643,1.8945-.1621,.8145-.2432,2.3438-.2432,4.5879s.0811,3.7637,.2432,4.5566c.1416,.793,.4297,1.4355,.8643,1.9258,.3535,.4697,.8184,.8506,1.3955,1.1426,.5654,.3447,1.2432,.5176,2.0322,.5176,1.8799,0,3.2852-1.0391,4.2148-3.1162h3.543Z" fill="none" stroke="#f2e235" stroke-linejoin="round" stroke-width=".25"/><path d="M762.1846,456.5684h-8.3691l-1.6943,5.0957h-3.541l8.0205-22.7812h2.7998l8.0195,22.7812h-3.5254l-1.71-5.0957Zm-.9541-3.0586l-3.1924-9.9668h-.0605l-3.1934,9.9668h6.4463Z" fill="none" stroke="#f2e235" stroke-linejoin="round" stroke-width=".25"/></g><g><path d="M516.6846,668.8828h3.1484l6.3267,14.8496,6.2061-14.8496h3.1597v22.7812h-3.3408v-14.207h-.0757l-4.6182,10.9404h-2.7861l-4.6187-10.9404h-.0605v14.207h-3.3408v-22.7812Z" fill="none" stroke="#f2e235" stroke-linejoin="round" stroke-width=".25"/><path d="M542.5347,668.8828h14.0962v3.248h-10.7554v6.5195h9.1812v3.0586h-9.1812v6.707h10.7554v3.248h-14.0962v-22.7812Z" fill="none" stroke="#f2e235" stroke-linejoin="round" stroke-width=".25"/><path d="M567.8984,683.1846l-4.8408,8.4795h-3.7666l6.7461-11.6719-6.3232-11.1094h3.7822l4.4023,7.9004,4.4023-7.9004h3.7666l-6.5156,11.1094,6.9541,11.6719h-3.7812l-4.8262-8.4795Z" fill="none" stroke="#f2e235" stroke-linejoin="round" stroke-width=".25"/><path d="M580.6885,668.8828h3.3398v22.7812h-3.3398v-22.7812Z" fill="none" stroke="#f2e235" stroke-linejoin="round" stroke-width=".25"/><path d="M605.4209,685.2998c-.4844,2.1113-1.4082,3.7334-2.7705,4.8672-1.4033,1.123-3.0635,1.6846-4.9814,1.6846-1.7344-.042-3.1816-.4785-4.3418-1.3125-1.1797-.8018-2.0371-1.7285-2.5713-2.7812-.1611-.3438-.3076-.6719-.4385-.9844-.1211-.3223-.2227-.7285-.3027-1.2188-.1514-.916-.2266-2.6768-.2266-5.2812,0-2.6455,.0752-4.416,.2266-5.3125,.1611-.8955,.4082-1.6191,.7412-2.1719,.5352-1.0518,1.3926-1.9893,2.5732-2.8125,1.1602-.833,2.6084-1.2598,4.3438-1.2812,2.1289,.0215,3.8643,.6709,5.2061,1.9502,1.3418,1.29,2.1895,2.8857,2.542,4.79h-3.5469c-.2725-.9189-.7676-1.7021-1.4854-2.3496-.7471-.6152-1.6572-.9336-2.7275-.9551-.7891,.0215-1.4658,.1836-2.0312,.4863-.5762,.3125-1.041,.7041-1.3945,1.1738-.4355,.4902-.7227,1.1221-.8643,1.8945-.1621,.8145-.2432,2.3438-.2432,4.5879s.0811,3.7637,.2432,4.5566c.1416,.793,.4297,1.4355,.8643,1.9258,.3535,.4697,.8184,.8506,1.3955,1.1426,.5654,.3447,1.2432,.5176,2.0322,.5176,1.8799,0,3.2852-1.0391,4.2148-3.1162h3.543Z" fill="none" stroke="#f2e235" stroke-linejoin="round" stroke-width=".25"/><path d="M609.1855,680.2734c0-2.6514,.0752-4.4258,.2266-5.3232,.1611-.8975,.4082-1.624,.7412-2.1768,.5342-1.0479,1.3916-1.9824,2.5713-2.8018,1.1602-.8301,2.6074-1.2549,4.3418-1.2764,1.7549,.0215,3.2168,.4482,4.3867,1.2812,1.1602,.8232,1.9971,1.7607,2.5117,2.8125,.373,.5527,.6299,1.2764,.7705,2.1719,.1309,.8965,.1963,2.667,.1963,5.3125,0,2.6045-.0654,4.3652-.1963,5.2812-.1416,.917-.3984,1.6514-.7715,2.2031-.5146,1.0527-1.3516,1.9795-2.5107,2.7812-1.1699,.834-2.6328,1.2705-4.3867,1.3125-1.7344-.042-3.1816-.4785-4.3418-1.3125-1.1797-.8018-2.0371-1.7285-2.5713-2.7812-.1611-.3438-.3076-.6719-.4385-.9844-.1211-.3223-.2227-.7285-.3027-1.2188-.1514-.916-.2266-2.6768-.2266-5.2812Zm3.3398,0c0,2.2441,.0811,3.7637,.2432,4.5566,.1416,.793,.4297,1.4355,.8643,1.9258,.3535,.4697,.8184,.8506,1.3945,1.1426,.5654,.3447,1.2432,.5176,2.0312,.5176,.7988,0,1.4902-.1729,2.0771-.5176,.5557-.292,1-.6729,1.334-1.1426,.4346-.4902,.7324-1.1328,.8945-1.9258,.1514-.793,.2275-2.3125,.2275-4.5566s-.0762-3.7734-.2275-4.5879c-.1621-.7725-.46-1.4043-.8945-1.8945-.334-.4697-.7783-.8613-1.334-1.1738-.5869-.3027-1.2783-.4648-2.0771-.4863-.7881,.0215-1.4658,.1836-2.0312,.4863-.5762,.3125-1.041,.7041-1.3945,1.1738-.4346,.4902-.7227,1.1221-.8643,1.8945-.1621,.8145-.2432,2.3438-.2432,4.5879Z" fill="none" stroke="#f2e235" stroke-linejoin="round" stroke-width=".25"/></g></svg>